<svg xmlns="http://www.w3.org/2000/svg" viewBox="0 0 32 32" fill="none">
  <rect width="32" height="32" rx="8" fill="#090d1a"/>
  <path d="M16 3L27 7.5V15.5C27 22.8 22.3 29.2 16 31C9.7 29.2 5 22.8 5 15.5V7.5L16 3Z" 
        fill="#2563eb" 
        fill-opacity="0.25" 
        stroke="#3b82f6" 
        stroke-width="1.75" 
        stroke-linejoin="round" />
  <path d="M11 11H13.5M11 11V13.5M21 11H18.5M21 11V13.5M11 21H13.5M11 21V18.5M21 21H18.5M21 21V18.5" 
        stroke="#38bdf8" 
        stroke-width="1.5" 
        stroke-linecap="round"/>
  <circle cx="13.5" cy="14.5" r="1.2" fill="#60a5fa" />
  <circle cx="18.5" cy="14.5" r="1.2" fill="#60a5fa" />
  <path d="M13.5 19C14.3 20 15.1 20.5 16 20.5C16.9 20.5 17.7 20 18.5 19" 
        stroke="#38bdf8" 
        stroke-width="1.5" 
        stroke-linecap="round" />
</svg>
